<?xml version="1.0" standalone="no"?>
<!DOCTYPE svg PUBLIC "-//W3C//DTD SVG 20010904//EN"
 "http://www.w3.org/TR/2001/REC-SVG-20010904/DTD/svg10.dtd">
<svg version="1.0" xmlns="http://www.w3.org/2000/svg"
 width="50" height="50" viewBox="0 0 610.000000 409.000000"
 preserveAspectRatio="xMidYMid meet">

<g transform="translate(0.000000,409.000000) scale(0.100000,-0.100000)"
fill="#000000" stroke="none">
<path d="M94 3993 c-12 -2 -32 -15 -45 -29 -23 -25 -24 -31 -24 -180 l0 -154
28 -27 c27 -28 29 -28 182 -33 144 -5 156 -7 177 -28 l23 -23 5 -1693 5 -1694
24 -26 25 -26 164 2 165 3 21 28 21 28 3 1542 c2 1040 -1 1564 -8 1610 -12 76
-28 113 -73 170 -30 37 -130 95 -171 99 -12 1 122 5 296 8 l318 5 27 28 c28
27 28 29 31 170 3 135 2 144 -20 177 -13 19 -34 37 -48 41 -26 7 -1090 9
-1126 2z"/>
<path d="M1682 3989 c-20 -6 -41 -23 -52 -42 -20 -31 -20 -62 -20 -1804 0
-1249 3 -1788 11 -1825 20 -98 84 -179 173 -219 38 -17 76 -19 539 -19 482 0
498 1 517 20 11 11 22 30 25 42 3 13 4 872 3 1910 l-3 1888 -28 27 -27 28
-150 0 -150 0 -27 -28 -28 -27 -5 -1695 -5 -1695 -28 -27 -27 -28 -323 -2
c-322 -3 -322 -3 -270 15 71 25 127 64 163 114 63 87 60 -13 60 1725 l0 1583
-29 32 -29 33 -129 2 c-70 1 -143 -2 -161 -8z"/>
<path d="M3459 3990 c-63 -11 -117 -41 -165 -92 -52 -54 -69 -87 -83 -163 -14
-76 -15 -3312 -1 -3398 18 -110 79 -193 175 -238 37 -17 72 -19 450 -19 409 0
410 0 460 24 63 29 126 97 151 162 17 44 19 77 19 322 l0 274 -28 24 c-27 23
-34 24 -177 24 -143 0 -150 -1 -177 -24 -28 -24 -28 -24 -33 -180 -5 -154 -5
-156 -33 -183 -27 -27 -30 -28 -165 -31 -155 -4 -183 3 -212 50 -20 33 -20 51
-20 1400 l0 1367 -22 58 c-29 78 -95 146 -173 178 l-60 25 308 0 c193 0 316
-4 328 -10 39 -21 49 -62 49 -199 0 -202 9 -211 209 -211 218 0 211 -10 211
325 0 283 -7 324 -70 404 -28 35 -59 59 -107 83 l-68 33 -360 2 c-198 1 -381
-2 -406 -7z"/>
<path d="M5055 3990 c-28 -4 -66 -15 -85 -25 -59 -29 -128 -105 -153 -165
l-22 -55 -3 -1665 c-2 -1126 1 -1687 8 -1733 13 -88 48 -156 103 -201 82 -67
73 -66 524 -66 407 0 408 0 458 24 63 29 126 97 151 162 18 47 19 101 19 1774
l0 1725 -21 46 c-32 69 -86 123 -156 155 l-63 29 -355 2 c-195 1 -378 -2 -405
-7z m556 -449 l29 -29 0 -1476 0 -1476 -29 -32 -29 -33 -139 -3 c-152 -4 -183
3 -210 45 -17 26 -18 100 -23 1418 l-5 1390 -24 45 c-46 87 -82 120 -170 156
l-56 24 313 0 314 0 29 -29z"/>
</g>
</svg>
